<?xml version="1.0" encoding="utf-8"?>
<!-- Generator: Adobe Illustrator 18.1.0, SVG Export Plug-In . SVG Version: 6.00 Build 0)  -->
<svg version="1.1" id="Layer_1" xmlns="http://www.w3.org/2000/svg" xmlns:xlink="http://www.w3.org/1999/xlink" x="0px" y="0px"
	 viewBox="0 0 550 123.8" enable-background="new 0 0 550 123.8" xml:space="preserve">
<path d="M34.2,23.3l-1.8,24.1v0.6c0,2.2,1.2,3.2,4.4,3.6c0.6,0.1,0.8,0.6,0.8,1c0,0.4-0.2,0.8-0.7,0.8H24.2c-0.5,0-0.7-0.4-0.7-0.8
	c0-0.5,0.3-0.9,0.8-1c3.6-0.5,4.2-1.6,4.5-4.2l2.5-26.2c0.3-2.6-0.8-4.2-4.1-4.3c-0.5-0.1-0.8-0.5-0.8-0.9c0-0.4,0.2-0.8,0.6-0.8
	h8.9c0.6,0,0.9,0.4,1,0.7l12.5,29.2l12.1-29.4c0.1-0.3,0.5-0.5,1.1-0.5h9c0.5,0,0.7,0.4,0.7,0.9c0,0.5-0.3,0.9-0.8,0.9
	c-3.4,0.1-4.2,1.6-4,4.2l2.2,25.5c0.3,3.3,1.1,4.5,4.6,5c0.6,0.1,0.8,0.6,0.8,1c0,0.4-0.2,0.8-0.7,0.8H59.7c-0.5,0-0.7-0.4-0.7-0.8
	c0-0.5,0.3-0.9,0.8-1c3.6-0.5,4.5-1.8,4.2-4.9l-2.1-23.6L49.3,52.9c-0.3,0.8-0.7,1.1-1,1.1c-0.3,0-0.6-0.4-0.8-0.8L34.2,23.3z
	 M110,45H98.9l-1.8,4.1C97,49.3,97,49.6,97,49.8c0,1,1.3,1.4,3.9,1.8c0.4,0.1,0.7,0.6,0.7,1c0,0.4-0.3,0.8-0.9,0.8H90.1
	c-0.7,0-1-0.4-1-0.9c0-0.4,0.3-0.9,0.8-1c2.7-0.5,3.2-0.8,4.9-4.6l8-17.9l-1.4-3.6c-0.1-0.2-0.1-0.3-0.1-0.4c0-0.5,0.5-0.6,0.8-0.6
	h4.6l7.9,18c2.4,5.5,3.3,8.8,6.1,9.1c0.6,0.1,0.8,0.6,0.8,1c0,0.4-0.2,0.8-0.7,0.8h-12.4c-0.5,0-0.7-0.4-0.7-0.8c0-0.5,0.3-1,0.8-1
	c2.4-0.2,3.3-0.7,3.3-1.8c0-0.9-0.6-2.1-1.4-3.8L110,45z M99.9,42.6h9.2l-4.7-10.8L99.9,42.6z M143.7,27c-3.3,0.2-5.2,2.3-5.6,6.4
	c-0.1,0.7-0.6,1-1,1c-0.5,0-0.9-0.3-0.9-0.9v-7.8c0-1.1,1-1.2,1.5-1.2h26.1c0.5,0,1.5,0,1.5,1.3v7.7c0,0.6-0.5,0.9-0.9,0.9
	c-0.5,0-1-0.3-1-1c-0.4-4.1-2.3-6.3-5.6-6.4l-4-0.2c-0.3,1.2-0.3,6.8-0.3,12.7v2c0,3.1,0.1,5.5,0.3,7.1c0.3,2.2,1.7,2.4,5.1,2.9
	c0.6,0.1,0.8,0.6,0.8,1c0,0.4-0.2,0.8-0.7,0.8h-16.1c-0.5,0-0.7-0.4-0.7-0.8c0-0.5,0.3-0.9,0.8-1c3.6-0.5,4.8-0.8,5-3.1
	c0.2-1.5,0.3-3.4,0.3-7v-1.9c0-6-0.1-11.6-0.4-12.8L143.7,27z M188.9,27c-3.3,0.2-5.2,2.3-5.6,6.4c-0.1,0.7-0.6,1-1,1
	c-0.5,0-0.9-0.3-0.9-0.9v-7.8c0-1.1,1-1.2,1.5-1.2h26.1c0.5,0,1.5,0,1.5,1.3v7.7c0,0.6-0.5,0.9-0.9,0.9c-0.5,0-1-0.3-1-1
	c-0.4-4.1-2.3-6.3-5.6-6.4l-4-0.2c-0.3,1.2-0.3,6.8-0.3,12.7v2c0,3.1,0.1,5.5,0.3,7.1c0.3,2.2,1.7,2.4,5.1,2.9
	c0.6,0.1,0.8,0.6,0.8,1c0,0.4-0.2,0.8-0.7,0.8H188c-0.5,0-0.7-0.4-0.7-0.8c0-0.5,0.3-0.9,0.8-1c3.6-0.5,4.8-0.8,5-3.1
	c0.2-1.5,0.3-3.4,0.3-7v-1.9c0-6-0.1-11.6-0.4-12.8L188.9,27z M268.3,51.4c3.2,0,7.7-1.6,7.7-6.9c0-7.4-17.3-8.7-17.3-20.2
	c0-7.5,6-10,12-10c3.1,0,6.1,0.7,8.4,1.7c0.4,0.2,0.5,0.4,0.5,1v6.9c0,0.6-0.4,0.9-0.9,0.9s-0.9-0.3-1-1c-0.7-5.2-4.2-6.7-7.7-6.7
	c-2.8,0-6,1.6-6,5.9c0,8.7,16.9,9.2,16.9,19.9c0,8.3-6.5,11-13.2,11c-3.3,0-6.6-0.4-9.2-1.6c-0.5-0.2-0.6-0.7-0.6-1.4v-7.6
	c0-0.7,0.4-1,0.8-1c0.4,0,0.8,0.3,0.9,0.7C261.5,49.9,264.8,51.4,268.3,51.4z M331,39.4c0,5,0.1,7.1,0.3,8.4c0.4,2.6,1,3.3,4.4,3.8
	c0.6,0.1,0.8,0.6,0.8,1c0,0.4-0.2,0.8-0.7,0.8h-14.7c-0.5,0-0.7-0.4-0.7-0.8c0-0.5,0.3-0.9,0.8-1c3.6-0.5,4.1-1.2,4.3-3.8
	c0.1-1.2,0.3-3.5,0.3-8.3h-15.9c0,4.8,0.1,7.1,0.3,8.3c0.4,2.6,1,3.3,4.4,3.8c0.6,0.1,0.8,0.6,0.8,1c0,0.4-0.2,0.8-0.7,0.8h-14.7
	c-0.5,0-0.7-0.4-0.7-0.8c0-0.5,0.3-0.9,0.8-1c3.6-0.5,4.1-1.2,4.3-3.8c0.1-1.2,0.3-3.4,0.3-8.4v-0.7c0-5-0.2-7.4-0.3-8.6
	c-0.2-2.6-0.5-3.2-4.1-3.7c-0.6-0.1-0.8-0.6-0.8-1c0-0.4,0.2-0.8,0.7-0.8h13.8c0.5,0,0.7,0.4,0.7,0.8c0,0.5-0.3,0.9-0.8,1
	c-3.4,0.5-3.4,1.1-3.8,3.7c-0.2,1.1-0.3,3.2-0.3,7h15.9c-0.1-3.9-0.2-6-0.3-7c-0.2-2.6-0.5-3.2-4.1-3.7c-0.6-0.1-0.8-0.6-0.8-1
	c0-0.4,0.2-0.8,0.7-0.8h13.8c0.5,0,0.7,0.4,0.7,0.8c0,0.5-0.3,0.9-0.8,1c-3.4,0.5-3.4,1.1-3.8,3.7c-0.2,1.2-0.3,3.6-0.3,8.5V39.4z
	 M375.2,45h-11.1l-1.8,4.1c-0.1,0.3-0.2,0.5-0.2,0.7c0,1,1.3,1.4,3.9,1.8c0.4,0.1,0.7,0.6,0.7,1c0,0.4-0.3,0.8-0.9,0.8h-10.6
	c-0.7,0-1-0.4-1-0.9c0-0.4,0.3-0.9,0.8-1c2.7-0.5,3.2-0.8,4.9-4.6l8-17.9l-1.4-3.6c-0.1-0.2-0.1-0.3-0.1-0.4c0-0.5,0.5-0.6,0.8-0.6
	h4.6l7.9,18c2.4,5.5,3.3,8.8,6.1,9.1c0.6,0.1,0.8,0.6,0.8,1c0,0.4-0.2,0.8-0.7,0.8h-12.4c-0.5,0-0.7-0.4-0.7-0.8c0-0.5,0.3-1,0.8-1
	c2.4-0.2,3.3-0.7,3.3-1.8c0-0.9-0.6-2.1-1.4-3.8L375.2,45z M365.1,42.6h9.2l-4.7-10.8L365.1,42.6z M406.4,25.9
	c-0.3-0.3-0.5-0.6-0.5-0.9c0-0.4,0.3-0.6,0.7-0.6h6.5l18.7,20.5v-4.4c0-6.1-0.2-9.2-0.3-10.5c-0.2-2.6-0.5-3.2-4.1-3.7
	c-0.6-0.1-0.8-0.6-0.8-1.1c0-0.4,0.2-0.8,0.7-0.8h11.9c0.5,0,0.7,0.4,0.7,0.8c0,0.5-0.3,1-0.8,1.1c-3.4,0.5-3.4,1.1-3.8,3.7
	c-0.2,1.2-0.3,4.1-0.3,10v12.8c0,1-0.5,1.3-0.9,1.3c-0.4,0-0.8-0.2-1.1-0.5l-20.1-21.5c0,8.5,0.4,14.3,0.5,15.6
	c0.4,2.6,1,3.3,4.4,3.8c0.6,0.1,0.8,0.6,0.8,1c0,0.4-0.2,0.8-0.7,0.8h-12.6c-0.5,0-0.7-0.4-0.7-0.8c0-0.5,0.3-0.9,0.8-1
	c3.5-0.5,4.1-1.2,4.3-3.8c0.1-1.2,0.3-3.4,0.3-7.1c0-6.2-0.2-9.8-0.3-11.1L406.4,25.9z M469.4,39.8c0,5,0.1,6.9,0.3,8.1
	c0.4,2.6,0.9,3.2,3.9,3.6c0.6,0.1,0.8,0.6,0.8,1c0,0.4-0.2,0.8-0.7,0.8h-14.2c-0.5,0-0.7-0.4-0.7-0.8c0-0.5,0.3-0.9,0.8-1
	c3.6-0.5,4.1-1,4.3-3.6c0.1-1.2,0.3-3.1,0.3-8.2v-1.1c0-5-0.2-7.4-0.3-8.6c-0.2-2.6-0.5-3.2-4.1-3.7c-0.6-0.1-0.8-0.6-0.8-1
	c0-0.4,0.2-0.8,0.7-0.8h13.3c0.5,0,0.7,0.4,0.7,0.8c0,0.5-0.3,0.9-0.8,1c-2.8,0.4-2.9,1-3.3,3.7c-0.2,1.2-0.3,3.6-0.3,8.5V39.8z
	 M470.5,39.9l10.4-11.6c0.2-0.2,0.3-0.4,0.3-0.6c0-0.6-1-1.2-3.3-1.4c-0.4-0.1-0.7-0.5-0.7-1c0-0.4,0.3-0.8,0.9-0.8h12.1
	c0.7,0,1,0.4,1,0.9c0,0.4-0.3,0.9-0.8,1c-2.6,0.4-3.7,0.7-5.4,2.4l-9.4,9.6l8.8,9.2c2.7,2.9,3.8,4.4,6.4,5.7
	c0.3,0.1,0.4,0.3,0.4,0.6c0,0.6-1.7,0.7-2.9,0.7c-3.6,0-5.4-0.8-6.9-2.5L470.5,39.9z M508.3,44.3c0-0.7,0.3-1,0.7-1
	c0.4,0,0.9,0.4,1,1c0.8,3.4,3.4,7,8.1,7c3.5,0,5.3-1.1,5.3-3.5c0-2.6-2.1-4-7.4-7.4c-4-2.5-7.4-4.6-7.4-9.2c0-5.7,5.2-7.2,10.4-7.2
	c3.3,0,6.5,0.7,8.4,1.7v7c0,0.5-0.4,0.8-0.8,0.8c-0.4,0-0.9-0.3-1-1.1c-0.7-3.8-3.5-6-7.6-6c-3.1,0-4.6,1.4-4.6,3.5
	c0,2.4,1.6,3.4,5.9,6.1c5.7,3.6,9,5.5,9,10.3c0,5.6-5.6,7.8-11.2,7.8c-3.4,0-6.7-0.8-8.9-2L508.3,44.3z"/>
<path d="M22.3,95.1c0-0.3,0.1-0.4,0.3-0.4c0.2,0,0.4,0.2,0.4,0.4c0.3,1.4,1.4,2.9,3.4,2.9c1.4,0,2.2-0.5,2.2-1.5
	c0-1.1-0.9-1.7-3.1-3.1c-1.7-1.1-3.1-1.9-3.1-3.8c0-2.4,2.2-3,4.3-3c1.4,0,2.7,0.3,3.5,0.7v2.9c0,0.2-0.2,0.3-0.3,0.3
	c-0.2,0-0.4-0.1-0.4-0.5c-0.3-1.6-1.4-2.5-3.2-2.5c-1.3,0-1.9,0.6-1.9,1.4c0,1,0.7,1.4,2.5,2.5c2.4,1.5,3.7,2.3,3.7,4.3
	c0,2.4-2.4,3.2-4.7,3.2c-1.4,0-2.8-0.3-3.7-0.8L22.3,95.1z M47.7,93.1c0,2.1,0,3,0.1,3.5c0.2,1.1,0.4,1.4,1.8,1.6
	c0.2,0,0.3,0.2,0.3,0.4c0,0.2-0.1,0.3-0.3,0.3h-6.1c-0.2,0-0.3-0.2-0.3-0.3c0-0.2,0.1-0.4,0.3-0.4c1.5-0.2,1.7-0.5,1.8-1.6
	c0-0.5,0.1-1.4,0.1-3.5h-6.6c0,2,0,3,0.1,3.5c0.2,1.1,0.4,1.4,1.8,1.6c0.2,0,0.3,0.2,0.3,0.4c0,0.2-0.1,0.3-0.3,0.3h-6.1
	c-0.2,0-0.3-0.2-0.3-0.3c0-0.2,0.1-0.4,0.3-0.4c1.5-0.2,1.7-0.5,1.8-1.6c0-0.5,0.1-1.4,0.1-3.5v-0.3c0-2.1-0.1-3.1-0.1-3.6
	c-0.1-1.1-0.2-1.3-1.7-1.6c-0.2,0-0.3-0.2-0.3-0.4c0-0.2,0.1-0.3,0.3-0.3h5.8c0.2,0,0.3,0.2,0.3,0.3c0,0.2-0.1,0.4-0.3,0.4
	c-1.4,0.2-1.4,0.5-1.6,1.6c-0.1,0.5-0.1,1.3-0.1,2.9h6.6c0-1.6-0.1-2.5-0.1-2.9c-0.1-1.1-0.2-1.3-1.7-1.6c-0.2,0-0.3-0.2-0.3-0.4
	c0-0.2,0.1-0.3,0.3-0.3h5.8c0.2,0,0.3,0.2,0.3,0.3c0,0.2-0.1,0.4-0.3,0.4c-1.4,0.2-1.4,0.5-1.6,1.6c-0.1,0.5-0.1,1.5-0.1,3.6V93.1z
	 M53.7,93.1c0-4.6,3.1-6.5,6.6-6.5c3.1,0,5.9,2.3,5.9,6c0,4.6-3,6.5-6.5,6.5C56.5,99.1,53.7,96.8,53.7,93.1z M63.8,93
	c0-3.3-1.6-5.3-3.9-5.3c-2.4,0-3.8,2.1-3.8,5.2c0,3.3,1.8,5.3,4.1,5.3C62.4,98.1,63.8,96,63.8,93z M75.1,93.5c0-0.1-0.1-0.1-0.1-0.2
	c0-0.2,0.1-0.3,0.5-0.3c1.5,0,2.7-1.1,2.7-2.7c0-2.3-1.8-2.5-2.9-2.5c-1,0-1.1,0.1-1.1,0.8v4.7c0,2.1,0,2.8,0.1,3.3
	c0.2,1.1,0.3,1.3,1.6,1.6c0.2,0,0.3,0.3,0.3,0.5c0,0.2-0.1,0.3-0.3,0.3h-5.9c-0.2,0-0.3-0.2-0.3-0.3c0-0.2,0.1-0.4,0.3-0.4
	c1.5-0.2,1.7-0.5,1.8-1.6c0-0.5,0.1-1.2,0.1-3.3v-0.5c0-2.1-0.1-3.1-0.1-3.6c-0.1-1.1-0.2-1.3-1.7-1.6c-0.2,0-0.3-0.2-0.3-0.4
	c0-0.2,0.1-0.3,0.3-0.3h5.8c1.4,0,4.7,0.4,4.7,3.3c0,2-1.7,2.8-3.3,3.2l2.7,3.1c1.1,1.3,1.5,1.8,2.7,2.4c0.1,0,0.2,0.1,0.2,0.2
	c0,0.2-0.7,0.3-1.3,0.3c-1.5,0-2.2-0.3-2.8-1.1L75.1,93.5z M87.2,87.9c-1.4,0.1-2.2,1-2.4,2.7c0,0.3-0.2,0.4-0.4,0.4
	c-0.2,0-0.4-0.1-0.4-0.4v-3.3c0-0.5,0.4-0.5,0.6-0.5h10.9c0.2,0,0.6,0,0.6,0.6v3.2c0,0.2-0.2,0.4-0.4,0.4c-0.2,0-0.4-0.1-0.4-0.4
	c-0.2-1.7-1-2.6-2.4-2.7l-1.7-0.1c-0.1,0.5-0.1,2.8-0.1,5.3v0.8c0,1.3,0,2.3,0.1,3c0.1,0.9,0.7,1,2.1,1.2c0.2,0,0.3,0.2,0.3,0.4
	c0,0.2-0.1,0.3-0.3,0.3h-6.7c-0.2,0-0.3-0.2-0.3-0.3c0-0.2,0.1-0.4,0.3-0.4c1.5-0.2,2-0.3,2.1-1.3c0.1-0.6,0.1-1.4,0.1-2.9v-0.8
	c0-2.5,0-4.9-0.2-5.4L87.2,87.9z M114.2,95.4h-4.6l-0.7,1.7c0,0.1-0.1,0.2-0.1,0.3c0,0.4,0.5,0.6,1.6,0.7c0.2,0,0.3,0.2,0.3,0.4
	c0,0.2-0.1,0.3-0.4,0.3h-4.4c-0.3,0-0.4-0.2-0.4-0.4c0-0.2,0.1-0.4,0.3-0.4c1.1-0.2,1.3-0.3,2-1.9l3.3-7.5l-0.6-1.5
	c0-0.1,0-0.1,0-0.2c0-0.2,0.2-0.3,0.3-0.3h1.9l3.3,7.5c1,2.3,1.4,3.7,2.5,3.8c0.2,0,0.3,0.2,0.3,0.4c0,0.2-0.1,0.3-0.3,0.3h-5.2
	c-0.2,0-0.3-0.2-0.3-0.3c0-0.2,0.1-0.4,0.3-0.4c1-0.1,1.4-0.3,1.4-0.7c0-0.4-0.2-0.9-0.6-1.6L114.2,95.4z M110,94.4h3.8l-2-4.5
	L110,94.4z M122,98.9c-0.2,0-0.3-0.2-0.3-0.3c0-0.2,0.1-0.4,0.3-0.4c1.5-0.2,1.7-0.5,1.8-1.6c0-0.5,0.1-1.2,0.1-3.3v-0.5
	c0-2.1-0.1-3.1-0.1-3.6c-0.1-1.1-0.2-1.3-1.7-1.6c-0.2,0-0.3-0.2-0.3-0.4c0-0.2,0.1-0.3,0.3-0.3h6.1c3.7,0,6.5,2.3,6.5,5.9
	c0,4.5-3.5,6.2-6.7,6.2H122z M132.1,93c0-3.5-1.6-5.1-4.3-5.1c-0.8,0-1.2,0.1-1.5,0.2c-0.1,0.5-0.2,2.5-0.2,4.6v0.5
	c0,2.1,0,2.8,0.2,3.9c0.1,0.5,0.3,0.8,1.8,0.8C130.6,97.9,132.1,96,132.1,93z M144.9,98.7c-0.1,0.3-0.4,0.5-0.6,0.5
	c-0.2,0-0.4-0.2-0.6-0.5l-3.2-7c-1.6-3.6-1.6-3.8-2.6-4.1c-0.2-0.1-0.3-0.3-0.3-0.4c0-0.2,0.1-0.4,0.4-0.4h4.6
	c0.3,0,0.4,0.2,0.4,0.3c0,0.2-0.1,0.4-0.3,0.4c-0.8,0.1-1.1,0.3-1.1,0.7c0,0.1,0,0.2,0.1,0.4l3.2,7.5l2.8-7.1
	c0.1-0.2,0.1-0.3,0.1-0.5c0-0.5-0.5-0.9-1.3-1c-0.2,0-0.3-0.2-0.3-0.4c0-0.2,0.1-0.3,0.4-0.3h4.4c0.3,0,0.4,0.2,0.4,0.3
	c0,0.2-0.1,0.3-0.3,0.4c-1,0.2-1.4,0.7-2,2L144.9,98.7z M164.3,95c0.1-0.2,0.3-0.3,0.5-0.3c0.2,0,0.3,0.1,0.3,0.4l-0.5,3.3
	c0,0.4-0.3,0.5-0.6,0.5h-9.6c-0.2,0-0.3-0.2-0.3-0.3c0-0.2,0.1-0.4,0.3-0.4c1.5-0.2,1.8-0.4,1.9-1.5c0-0.5,0.1-1.3,0.1-3.4v-0.3
	c0-2-0.1-3.3-0.2-3.8c-0.1-1.1-0.2-1.3-1.7-1.6c-0.2,0-0.3-0.2-0.3-0.4c0-0.2,0.1-0.3,0.3-0.3h9.3c0.4,0,0.6,0.1,0.6,0.5v3
	c0,0.5-0.8,0.5-0.8,0c-0.2-1.7-0.9-2.4-2.2-2.4h-2.7v4.3l4.3-0.2c0.1,0,0.2,0.2,0.2,0.4c0,0.4-0.2,1-0.4,1l-4.1-0.1
	c0,2.3,0,3,0.1,3.5c0.2,1,0.6,1,2,1C163.1,97.7,163.5,96.8,164.3,95z M169.6,87.4c-0.1-0.1-0.2-0.3-0.2-0.4c0-0.2,0.1-0.3,0.3-0.3
	h2.7l7.8,8.6v-1.8c0-2.5-0.1-3.8-0.1-4.4c-0.1-1.1-0.2-1.3-1.7-1.6c-0.2,0-0.3-0.3-0.3-0.5c0-0.2,0.1-0.3,0.3-0.3h5
	c0.2,0,0.3,0.2,0.3,0.3c0,0.2-0.1,0.4-0.3,0.5c-1.4,0.2-1.4,0.5-1.6,1.6c-0.1,0.5-0.1,1.7-0.1,4.2v5.4c0,0.4-0.2,0.5-0.4,0.5
	c-0.2,0-0.3-0.1-0.5-0.2l-8.4-9c0,3.5,0.2,6,0.2,6.5c0.2,1.1,0.4,1.4,1.8,1.6c0.2,0,0.3,0.2,0.3,0.4c0,0.2-0.1,0.3-0.3,0.3h-5.3
	c-0.2,0-0.3-0.2-0.3-0.3c0-0.2,0.1-0.4,0.3-0.4c1.5-0.2,1.7-0.5,1.8-1.6c0-0.5,0.1-1.4,0.1-3c0-2.6-0.1-4.1-0.1-4.6L169.6,87.4z
	 M189.1,87.9c-1.4,0.1-2.2,1-2.4,2.7c0,0.3-0.2,0.4-0.4,0.4c-0.2,0-0.4-0.1-0.4-0.4v-3.3c0-0.5,0.4-0.5,0.6-0.5h10.9
	c0.2,0,0.6,0,0.6,0.6v3.2c0,0.2-0.2,0.4-0.4,0.4c-0.2,0-0.4-0.1-0.4-0.4c-0.2-1.7-1-2.6-2.4-2.7l-1.7-0.1c-0.1,0.5-0.1,2.8-0.1,5.3
	v0.8c0,1.3,0,2.3,0.1,3c0.1,0.9,0.7,1,2.1,1.2c0.2,0,0.3,0.2,0.3,0.4c0,0.2-0.1,0.3-0.3,0.3h-6.7c-0.2,0-0.3-0.2-0.3-0.3
	c0-0.2,0.1-0.4,0.3-0.4c1.5-0.2,2-0.3,2.1-1.3c0.1-0.6,0.1-1.4,0.1-2.9v-0.8c0-2.5,0-4.9-0.2-5.4L189.1,87.9z M206.2,86.8
	c0.2,0,0.3,0.2,0.3,0.3c0,0.2-0.1,0.4-0.3,0.4c-1.4,0.2-1.4,0.5-1.6,1.6c-0.1,0.5-0.1,3.5-0.1,4.7c0,2.6,1.3,4,3.4,4
	c2.2,0,3.8-1.1,3.8-3.2v-1.1c0-2.5-0.1-4-0.1-4.5c-0.1-1.1-0.2-1.3-1.7-1.6c-0.2,0-0.3-0.2-0.3-0.4c0-0.2,0.1-0.3,0.3-0.3h5.2
	c0.2,0,0.3,0.2,0.3,0.3c0,0.2-0.1,0.4-0.3,0.4c-1.4,0.2-1.4,0.5-1.6,1.6c-0.1,0.5-0.1,2.2-0.1,4.7c-0.1,3.7-2.2,5.3-5.7,5.3
	c-3.2,0-5.2-1.8-5.2-5c0-1.9-0.1-4.4-0.1-4.9c-0.1-1.1-0.2-1.3-1.7-1.6c-0.2,0-0.3-0.2-0.3-0.4c0-0.2,0.1-0.3,0.3-0.3H206.2z
	 M223.1,93.5c0-0.1-0.1-0.1-0.1-0.2c0-0.2,0.1-0.3,0.5-0.3c1.5,0,2.7-1.1,2.7-2.7c0-2.3-1.8-2.5-2.9-2.5c-1,0-1.1,0.1-1.1,0.8v4.7
	c0,2.1,0,2.8,0.1,3.3c0.2,1.1,0.3,1.3,1.6,1.6c0.2,0,0.3,0.3,0.3,0.5c0,0.2-0.1,0.3-0.3,0.3h-5.9c-0.2,0-0.3-0.2-0.3-0.3
	c0-0.2,0.1-0.4,0.3-0.4c1.5-0.2,1.7-0.5,1.8-1.6c0-0.5,0.1-1.2,0.1-3.3v-0.5c0-2.1-0.1-3.1-0.1-3.6c-0.1-1.1-0.2-1.3-1.7-1.6
	c-0.2,0-0.3-0.2-0.3-0.4c0-0.2,0.1-0.3,0.3-0.3h5.8c1.4,0,4.7,0.4,4.7,3.3c0,2-1.7,2.8-3.3,3.2l2.7,3.1c1.1,1.3,1.5,1.8,2.7,2.4
	c0.1,0,0.2,0.1,0.2,0.2c0,0.2-0.7,0.3-1.3,0.3c-1.5,0-2.2-0.3-2.8-1.1L223.1,93.5z M243.1,95c0.1-0.2,0.3-0.3,0.5-0.3
	c0.2,0,0.3,0.1,0.3,0.4l-0.5,3.3c0,0.4-0.3,0.5-0.6,0.5h-9.6c-0.2,0-0.3-0.2-0.3-0.3c0-0.2,0.1-0.4,0.3-0.4c1.5-0.2,1.8-0.4,1.9-1.5
	c0-0.5,0.1-1.3,0.1-3.4v-0.3c0-2-0.1-3.3-0.2-3.8c-0.1-1.1-0.2-1.3-1.7-1.6c-0.2,0-0.3-0.2-0.3-0.4c0-0.2,0.1-0.3,0.3-0.3h9.3
	c0.4,0,0.6,0.1,0.6,0.5v3c0,0.5-0.8,0.5-0.8,0c-0.2-1.7-0.9-2.4-2.2-2.4h-2.7v4.3l4.3-0.2c0.1,0,0.2,0.2,0.2,0.4c0,0.4-0.2,1-0.4,1
	l-4.1-0.1c0,2.3,0,3,0.1,3.5c0.2,1,0.6,1,2,1C241.9,97.7,242.3,96.8,243.1,95z M247.9,95.1c0-0.3,0.1-0.4,0.3-0.4s0.4,0.2,0.4,0.4
	c0.3,1.4,1.4,2.9,3.4,2.9c1.4,0,2.2-0.5,2.2-1.5c0-1.1-0.9-1.7-3.1-3.1c-1.7-1.1-3.1-1.9-3.1-3.8c0-2.4,2.2-3,4.3-3
	c1.4,0,2.7,0.3,3.5,0.7v2.9c0,0.2-0.2,0.3-0.3,0.3s-0.4-0.1-0.4-0.5c-0.3-1.6-1.4-2.5-3.2-2.5c-1.3,0-1.9,0.6-1.9,1.4
	c0,1,0.7,1.4,2.5,2.5c2.4,1.5,3.7,2.3,3.7,4.3c0,2.4-2.4,3.2-4.7,3.2c-1.4,0-2.8-0.3-3.7-0.8L247.9,95.1z M271.9,93.2
	c0,2.1,0,2.8,0.1,3.3c0.2,1.1,0.4,1.4,1.8,1.6c0.2,0,0.3,0.2,0.3,0.4c0,0.2-0.1,0.3-0.3,0.3h-6.1c-0.2,0-0.3-0.2-0.3-0.3
	c0-0.2,0.1-0.4,0.3-0.4c1.5-0.2,1.7-0.5,1.8-1.6c0-0.5,0.1-1.2,0.1-3.3v-0.5c0-2.1-0.1-3.1-0.1-3.6c-0.1-1.1-0.2-1.3-1.7-1.5
	c-0.2,0-0.3-0.2-0.3-0.4c0-0.2,0.1-0.3,0.3-0.3h5.8c0.2,0,0.3,0.2,0.3,0.3c0,0.2-0.1,0.4-0.3,0.4c-1.4,0.2-1.4,0.4-1.6,1.5
	c-0.1,0.5-0.1,1.5-0.1,3.6V93.2z M278.4,87.4c-0.1-0.1-0.2-0.3-0.2-0.4c0-0.2,0.1-0.3,0.3-0.3h2.7l7.8,8.6v-1.8
	c0-2.5-0.1-3.8-0.1-4.4c-0.1-1.1-0.2-1.3-1.7-1.6c-0.2,0-0.3-0.3-0.3-0.5c0-0.2,0.1-0.3,0.3-0.3h5c0.2,0,0.3,0.2,0.3,0.3
	c0,0.2-0.1,0.4-0.3,0.5c-1.4,0.2-1.4,0.5-1.6,1.6c-0.1,0.5-0.1,1.7-0.1,4.2v5.4c0,0.4-0.2,0.5-0.4,0.5c-0.2,0-0.3-0.1-0.5-0.2
	l-8.4-9c0,3.5,0.2,6,0.2,6.5c0.2,1.1,0.4,1.4,1.8,1.6c0.2,0,0.3,0.2,0.3,0.4c0,0.2-0.1,0.3-0.3,0.3h-5.3c-0.2,0-0.3-0.2-0.3-0.3
	c0-0.2,0.1-0.4,0.3-0.4c1.5-0.2,1.7-0.5,1.8-1.6c0-0.5,0.1-1.4,0.1-3c0-2.6-0.1-4.1-0.1-4.6L278.4,87.4z M316.2,98.7
	c-0.2,0.3-0.3,0.5-0.5,0.5s-0.4-0.2-0.5-0.5l-3-7.4l-3,7.4c-0.2,0.3-0.3,0.5-0.5,0.5c-0.2,0-0.4-0.2-0.5-0.5l-2.6-6.4
	c-1.4-3.6-1.8-4.4-3.2-4.7c-0.2,0-0.3-0.2-0.3-0.4c0-0.2,0.1-0.4,0.4-0.4h5c0.3,0,0.4,0.2,0.4,0.3c0,0.2-0.1,0.4-0.3,0.4
	c-0.8,0.1-1.1,0.3-1.1,0.7c0,0.1,0,0.2,0.1,0.4l2.7,7.4l2.2-6.5c-0.6-1.3-1.1-1.7-2-1.9c-0.2,0-0.3-0.2-0.3-0.4
	c0-0.2,0.1-0.4,0.4-0.4h5c0.3,0,0.4,0.2,0.4,0.3c0,0.2-0.1,0.4-0.3,0.4c-0.8,0.1-1.1,0.4-1.1,0.9c0,0.1,0,0.2,0.1,0.4l2.7,7.3l2.3-7
	c0.1-0.2,0.1-0.3,0.1-0.5c0-0.5-0.4-0.9-1.3-1.1c-0.2,0-0.3-0.2-0.3-0.4c0-0.2,0.1-0.3,0.4-0.3h4.7c0.3,0,0.4,0.2,0.4,0.3
	c0,0.2-0.1,0.3-0.3,0.4c-1,0.2-1.8,0.7-2.3,2L316.2,98.7z M325.4,93.1c0-4.6,3.1-6.5,6.6-6.5c3.1,0,5.9,2.3,5.9,6
	c0,4.6-3,6.5-6.5,6.5C328.2,99.1,325.4,96.8,325.4,93.1z M335.5,93c0-3.3-1.6-5.3-3.9-5.3c-2.4,0-3.8,2.1-3.8,5.2
	c0,3.3,1.8,5.3,4.1,5.3C334.1,98.1,335.5,96,335.5,93z M346.8,93.5c0-0.1-0.1-0.1-0.1-0.2c0-0.2,0.1-0.3,0.5-0.3
	c1.5,0,2.7-1.1,2.7-2.7c0-2.3-1.8-2.5-2.9-2.5c-1,0-1.1,0.1-1.1,0.8v4.7c0,2.1,0,2.8,0.1,3.3c0.2,1.1,0.3,1.3,1.6,1.6
	c0.2,0,0.3,0.3,0.3,0.5c0,0.2-0.1,0.3-0.3,0.3h-5.9c-0.2,0-0.3-0.2-0.3-0.3c0-0.2,0.1-0.4,0.3-0.4c1.5-0.2,1.7-0.5,1.8-1.6
	c0-0.5,0.1-1.2,0.1-3.3v-0.5c0-2.1-0.1-3.1-0.1-3.6c-0.1-1.1-0.2-1.3-1.7-1.6c-0.2,0-0.3-0.2-0.3-0.4c0-0.2,0.1-0.3,0.3-0.3h5.8
	c1.4,0,4.7,0.4,4.7,3.3c0,2-1.7,2.8-3.3,3.2l2.7,3.1c1.1,1.3,1.5,1.8,2.7,2.4c0.1,0,0.2,0.1,0.2,0.2c0,0.2-0.7,0.3-1.3,0.3
	c-1.5,0-2.2-0.3-2.8-1.1L346.8,93.5z M356.8,98.9c-0.2,0-0.3-0.2-0.3-0.3c0-0.2,0.1-0.4,0.3-0.4c1.5-0.2,1.7-0.5,1.8-1.6
	c0-0.5,0.1-1.2,0.1-3.3v-0.5c0-2.1-0.1-3.1-0.1-3.6c-0.1-1.1-0.2-1.3-1.7-1.6c-0.2,0-0.3-0.2-0.3-0.4c0-0.2,0.1-0.3,0.3-0.3h6.1
	c3.7,0,6.5,2.3,6.5,5.9c0,4.5-3.5,6.2-6.7,6.2H356.8z M366.9,93c0-3.5-1.6-5.1-4.3-5.1c-0.8,0-1.2,0.1-1.5,0.2
	c-0.1,0.5-0.2,2.5-0.2,4.6v0.5c0,2.1,0,2.8,0.2,3.9c0.1,0.5,0.3,0.8,1.8,0.8C365.4,97.9,366.9,96,366.9,93z M373.5,95.1
	c0-0.3,0.1-0.4,0.3-0.4s0.4,0.2,0.4,0.4c0.3,1.4,1.4,2.9,3.4,2.9c1.4,0,2.2-0.5,2.2-1.5c0-1.1-0.9-1.7-3.1-3.1
	c-1.7-1.1-3.1-1.9-3.1-3.8c0-2.4,2.2-3,4.3-3c1.4,0,2.7,0.3,3.5,0.7v2.9c0,0.2-0.2,0.3-0.3,0.3s-0.4-0.1-0.4-0.5
	c-0.3-1.6-1.4-2.5-3.2-2.5c-1.3,0-1.9,0.6-1.9,1.4c0,1,0.7,1.4,2.5,2.5c2.4,1.5,3.7,2.3,3.7,4.3c0,2.4-2.4,3.2-4.7,3.2
	c-1.4,0-2.8-0.3-3.7-0.8L373.5,95.1z M406,88.8c1,0,1.7,0.6,1.7,1.6c0,1.6-1.4,2.1-4.1,2.2c0.2,0.7,0.3,1.3,0.3,2
	c0,2.4-1.6,4.5-6.2,4.5c-3.1,0-5-1.6-5-3.6c0-1.8,1.5-3.1,4-3.3c-2.2-0.5-3.1-1.7-3.1-2.9c0-1.8,1.8-2.8,3.9-2.8c1.2,0,3,0.3,3,1.4
	c0,0.2-0.2,0.4-0.4,0.4c-0.4,0-0.8-0.6-2.2-0.6c-1.1,0-1.9,0.5-1.9,1.6c0,1,0.5,2.4,3.3,2.4c5.3,0,6.4-0.4,6.4-1.8
	c0-0.3-0.1-0.7-0.2-1.1C405.7,88.8,405.8,88.8,406,88.8z M399,92.8c-2.6,0.2-3.8,1.2-3.8,2.7c0,1.5,0.9,2.6,3.1,2.6
	c2.5,0,3.6-1.4,3.6-3.1c0-0.7-0.2-1.5-0.5-2.2L399,92.8z M424.3,98.1c0.2,0,0.3,0.3,0.3,0.5c0,0.2-0.1,0.3-0.3,0.3h-6.8
	c-0.2,0-0.3-0.2-0.3-0.3c0-0.2,0.1-0.4,0.3-0.4c1.5-0.2,1.8-0.4,1.9-1.5c0-0.5,0.1-1.3,0.1-3.5v-0.4c0-2.1-0.1-3.1-0.1-3.6
	c-0.1-1.1-0.2-1.3-1.7-1.6c-0.2,0-0.3-0.2-0.3-0.4c0-0.2,0.1-0.3,0.3-0.3h5.6c1.4,0,4.8,0.6,4.8,3.9c0,2.2-2.2,3.8-4.5,3.8
	c-0.5,0-0.6-0.2-0.6-0.4c0-0.2,0.1-0.3,0.3-0.3c1.5,0,2.5-1.2,2.5-3.1c0-2.3-1.8-2.8-3-2.8c-1,0-1.1,0.1-1.1,0.8v4.6
	c0,2.1,0,2.7,0.1,3.5C422,97.6,422,97.7,424.3,98.1z M435.7,93.2c0,2.1,0,2.8,0.1,3.3c0.2,1.1,0.4,1.4,1.8,1.6
	c0.2,0,0.3,0.2,0.3,0.4c0,0.2-0.1,0.3-0.3,0.3h-6.1c-0.2,0-0.3-0.2-0.3-0.3c0-0.2,0.1-0.4,0.3-0.4c1.5-0.2,1.7-0.5,1.8-1.6
	c0-0.5,0.1-1.2,0.1-3.3v-0.5c0-2.1-0.1-3.1-0.1-3.6c-0.1-1.1-0.2-1.3-1.7-1.5c-0.2,0-0.3-0.2-0.3-0.4c0-0.2,0.1-0.3,0.3-0.3h5.8
	c0.2,0,0.3,0.2,0.3,0.3c0,0.2-0.1,0.4-0.3,0.4c-1.4,0.2-1.4,0.4-1.6,1.5c-0.1,0.5-0.1,1.5-0.1,3.6V93.2z M448.3,99.1
	c-4.1,0-6.5-2.3-6.5-6.2c0-3.7,2.7-6.4,7.2-6.4c1,0,2,0.1,3.1,0.4c0.2,0,0.2,0.1,0.2,0.3l0,3c0,0.2-0.2,0.3-0.5,0.3
	c-0.2,0-0.3-0.1-0.4-0.3c-0.1-1.2-0.9-2.7-3-2.7c-1.7,0-4.4,1.4-4.4,5.3c0,3.2,1.9,5.3,4.5,5.3c2.1,0,3.2-1.7,3.6-2.8
	c0.1-0.2,0.2-0.2,0.3-0.2c0.2,0,0.3,0.1,0.3,0.3l-0.2,2.8c0,0.2-0.1,0.3-0.2,0.3C450.8,98.9,449.5,99.1,448.3,99.1z M458.7,87.9
	c-1.4,0.1-2.2,1-2.4,2.7c0,0.3-0.2,0.4-0.4,0.4s-0.4-0.1-0.4-0.4v-3.3c0-0.5,0.4-0.5,0.6-0.5h10.9c0.2,0,0.6,0,0.6,0.6v3.2
	c0,0.2-0.2,0.4-0.4,0.4s-0.4-0.1-0.4-0.4c-0.2-1.7-1-2.6-2.4-2.7l-1.7-0.1c-0.1,0.5-0.1,2.8-0.1,5.3v0.8c0,1.3,0,2.3,0.1,3
	c0.1,0.9,0.7,1,2.1,1.2c0.2,0,0.3,0.2,0.3,0.4c0,0.2-0.1,0.3-0.3,0.3h-6.7c-0.2,0-0.3-0.2-0.3-0.3c0-0.2,0.1-0.4,0.3-0.4
	c1.5-0.2,2-0.3,2.1-1.3c0.1-0.6,0.1-1.4,0.1-2.9v-0.8c0-2.5,0-4.9-0.2-5.4L458.7,87.9z M475.8,86.8c0.2,0,0.3,0.2,0.3,0.3
	c0,0.2-0.1,0.4-0.3,0.4c-1.4,0.2-1.4,0.5-1.6,1.6c-0.1,0.5-0.1,3.5-0.1,4.7c0,2.6,1.3,4,3.4,4c2.2,0,3.8-1.1,3.8-3.2v-1.1
	c0-2.5-0.1-4-0.1-4.5c-0.1-1.1-0.2-1.3-1.7-1.6c-0.2,0-0.3-0.2-0.3-0.4c0-0.2,0.1-0.3,0.3-0.3h5.2c0.2,0,0.3,0.2,0.3,0.3
	c0,0.2-0.1,0.4-0.3,0.4c-1.4,0.2-1.4,0.5-1.6,1.6c-0.1,0.5-0.1,2.2-0.1,4.7c-0.1,3.7-2.2,5.3-5.7,5.3c-3.2,0-5.2-1.8-5.2-5
	c0-1.9-0.1-4.4-0.1-4.9c-0.1-1.1-0.2-1.3-1.7-1.6c-0.2,0-0.3-0.2-0.3-0.4c0-0.2,0.1-0.3,0.3-0.3H475.8z M492.8,93.5
	c0-0.1-0.1-0.1-0.1-0.2c0-0.2,0.1-0.3,0.5-0.3c1.5,0,2.7-1.1,2.7-2.7c0-2.3-1.8-2.5-2.9-2.5c-1,0-1.1,0.1-1.1,0.8v4.7
	c0,2.1,0,2.8,0.1,3.3c0.2,1.1,0.3,1.3,1.6,1.6c0.2,0,0.3,0.3,0.3,0.5c0,0.2-0.1,0.3-0.3,0.3h-5.9c-0.2,0-0.3-0.2-0.3-0.3
	c0-0.2,0.1-0.4,0.3-0.4c1.5-0.2,1.7-0.5,1.8-1.6c0-0.5,0.1-1.2,0.1-3.3v-0.5c0-2.1-0.1-3.1-0.1-3.6c-0.1-1.1-0.2-1.3-1.7-1.6
	c-0.2,0-0.3-0.2-0.3-0.4c0-0.2,0.1-0.3,0.3-0.3h5.8c1.4,0,4.7,0.4,4.7,3.3c0,2-1.7,2.8-3.3,3.2l2.7,3.1c1.1,1.3,1.5,1.8,2.7,2.4
	c0.1,0,0.2,0.1,0.2,0.2c0,0.2-0.7,0.3-1.3,0.3c-1.5,0-2.2-0.3-2.8-1.1L492.8,93.5z M512.7,95c0.1-0.2,0.3-0.3,0.5-0.3
	c0.2,0,0.3,0.1,0.3,0.4l-0.5,3.3c0,0.4-0.3,0.5-0.6,0.5h-9.6c-0.2,0-0.3-0.2-0.3-0.3c0-0.2,0.1-0.4,0.3-0.4c1.5-0.2,1.8-0.4,1.9-1.5
	c0-0.5,0.1-1.3,0.1-3.4v-0.3c0-2-0.1-3.3-0.2-3.8c-0.1-1.1-0.2-1.3-1.7-1.6c-0.2,0-0.3-0.2-0.3-0.4c0-0.2,0.1-0.3,0.3-0.3h9.3
	c0.4,0,0.6,0.1,0.6,0.5v3c0,0.5-0.8,0.5-0.8,0c-0.2-1.7-0.9-2.4-2.2-2.4h-2.7v4.3l4.3-0.2c0.1,0,0.2,0.2,0.2,0.4c0,0.4-0.2,1-0.4,1
	l-4.1-0.1c0,2.3,0,3,0.1,3.5c0.2,1,0.6,1,2,1C511.5,97.7,511.9,96.8,512.7,95z M517.5,95.1c0-0.3,0.1-0.4,0.3-0.4s0.4,0.2,0.4,0.4
	c0.3,1.4,1.4,2.9,3.4,2.9c1.4,0,2.2-0.5,2.2-1.5c0-1.1-0.9-1.7-3.1-3.1c-1.7-1.1-3.1-1.9-3.1-3.8c0-2.4,2.2-3,4.3-3
	c1.4,0,2.7,0.3,3.5,0.7v2.9c0,0.2-0.2,0.3-0.3,0.3s-0.4-0.1-0.4-0.5c-0.3-1.6-1.4-2.5-3.2-2.5c-1.3,0-1.9,0.6-1.9,1.4
	c0,1,0.7,1.4,2.5,2.5c2.4,1.5,3.7,2.3,3.7,4.3c0,2.4-2.4,3.2-4.7,3.2c-1.4,0-2.8-0.3-3.7-0.8L517.5,95.1z"/>
</svg>
